<?xml version="1.0" encoding="UTF-8"?>
<svg id="Layer_1" xmlns="http://www.w3.org/2000/svg" version="1.1" viewBox="0 0 2451 1789">
  <!-- Generator: Adobe Illustrator 29.6.1, SVG Export Plug-In . SVG Version: 2.1.1 Build 9)  -->
  <defs>
    <style>
      .st0 {
        fill: #1b1b1c;
      }

      .st1 {
        fill: #1742ad;
      }

      .st2 {
        fill: #fff;
      }

      .st3 {
        fill: #3271fe;
      }
    </style>
  </defs>
  <g>
    <path class="st3" d="M1061.03,212.42h-43.64s-127.82,126.27-127.82,126.27v43.65h43.65l127.82-126.26v-43.65Z"/>
    <path class="st3" d="M778.86,244.14c0,17.56,14.24,31.8,31.8,31.8s31.8-14.24,31.8-31.8-14.24-31.8-31.8-31.8-31.8,14.24-31.8,31.8Z"/>
    <path class="st3" d="M950.35,212.42h-43.64s-127.82,126.27-127.82,126.27v43.65h43.65l127.82-126.26v-43.65Z"/>
    <path class="st0" d="M282.36,225.63c17.44,0,31.28,5.29,41.52,15.87,10.4,10.58,15.6,25.27,15.6,44.07v82.1h-42.78v-76.3c0-9.07-2.43-16.03-7.3-20.9-4.7-5.04-11.24-7.55-19.63-7.55s-15.01,2.52-19.88,7.55c-4.7,4.87-7.04,11.84-7.04,20.9v76.3h-42.77v-76.3c0-9.07-2.43-16.03-7.3-20.9-4.7-5.04-11.24-7.55-19.63-7.55s-15.01,2.52-19.88,7.55c-4.7,4.87-7.05,11.84-7.05,20.9v76.3h-43.03v-140.52h43.03v17.63c4.36-5.88,10.06-10.49,17.11-13.85,7.05-3.53,15.01-5.29,23.9-5.29,10.57,0,19.96,2.27,28.18,6.8,8.39,4.53,14.93,11,19.63,19.39,4.87-7.72,11.49-14.02,19.88-18.89,8.39-4.87,17.53-7.3,27.43-7.3Z"/>
    <path class="st0" d="M405.05,227.15v140.52h-43.03v-140.52h43.03Z"/>
    <path class="st0" d="M471.7,250.57c5.03-7.72,11.32-13.77,18.87-18.13,7.55-4.53,15.94-6.8,25.16-6.8v45.58h-11.83c-10.74,0-18.79,2.35-24.15,7.05-5.37,4.53-8.05,12.59-8.05,24.18v65.22h-43.03v-140.52h43.03v23.42Z"/>
    <path class="st0" d="M520.2,297.15c0-14.44,2.68-27.11,8.05-38.03,5.54-10.91,13-19.31,22.39-25.18,9.39-5.88,19.88-8.81,31.45-8.81,9.9,0,18.53,2.01,25.92,6.04,7.55,4.03,13.34,9.32,17.36,15.86v-19.89h43.03v140.52h-43.03v-19.89c-4.19,6.55-10.07,11.84-17.61,15.87-7.38,4.03-16.02,6.04-25.92,6.04-11.41,0-21.81-2.94-31.2-8.81-9.39-6.04-16.86-14.52-22.39-25.43-5.37-11.08-8.05-23.84-8.05-38.28ZM625.38,297.41c0-10.74-3.02-19.22-9.06-25.43-5.87-6.21-13.09-9.32-21.64-9.32s-15.85,3.11-21.89,9.32c-5.87,6.04-8.81,14.44-8.81,25.18s2.94,19.31,8.81,25.69c6.04,6.21,13.33,9.32,21.89,9.32s15.77-3.11,21.64-9.32c6.04-6.21,9.06-14.69,9.06-25.43Z"/>
    <path class="st0" d="M735.01,227.15v140.52h-43.03v-140.52h43.03Z"/>
  </g>
  <rect x="1226.12" width="1224.34" height="596.2"/>
  <rect x="1226.12" y="596.2" width="1224.34" height="596.2"/>
  <rect class="st3" x="1226.12" y="1192.4" width="1224.34" height="596.2"/>
  <g>
    <path d="M1061.03,808.62h-43.64s-127.82,126.27-127.82,126.27v43.65h43.65l127.82-126.26v-43.65Z"/>
    <path d="M778.86,840.34c0,17.56,14.24,31.8,31.8,31.8s31.8-14.24,31.8-31.8-14.24-31.8-31.8-31.8-31.8,14.24-31.8,31.8Z"/>
    <path d="M950.35,808.62h-43.64s-127.82,126.27-127.82,126.27v43.65h43.65l127.82-126.26v-43.65Z"/>
    <path d="M282.36,821.84c17.44,0,31.28,5.29,41.52,15.87,10.4,10.58,15.6,25.27,15.6,44.07v82.1h-42.78v-76.3c0-9.07-2.43-16.03-7.3-20.9-4.7-5.04-11.24-7.55-19.63-7.55s-15.01,2.52-19.88,7.55c-4.7,4.87-7.04,11.84-7.04,20.9v76.3h-42.77v-76.3c0-9.07-2.43-16.03-7.3-20.9-4.7-5.04-11.24-7.55-19.63-7.55s-15.01,2.52-19.88,7.55c-4.7,4.87-7.05,11.84-7.05,20.9v76.3h-43.03v-140.52h43.03v17.63c4.36-5.88,10.06-10.49,17.11-13.85,7.05-3.53,15.01-5.29,23.9-5.29,10.57,0,19.96,2.27,28.18,6.8,8.39,4.53,14.93,11,19.63,19.39,4.87-7.72,11.49-14.02,19.88-18.89,8.39-4.87,17.53-7.3,27.43-7.3Z"/>
    <path d="M405.05,823.35v140.52h-43.03v-140.52h43.03Z"/>
    <path d="M471.7,846.77c5.03-7.72,11.32-13.77,18.87-18.13,7.55-4.53,15.94-6.8,25.16-6.8v45.58h-11.83c-10.74,0-18.79,2.35-24.15,7.05-5.37,4.53-8.05,12.59-8.05,24.18v65.22h-43.03v-140.52h43.03v23.42Z"/>
    <path d="M520.2,893.35c0-14.44,2.68-27.11,8.05-38.03,5.54-10.91,13-19.31,22.39-25.18,9.39-5.88,19.88-8.81,31.45-8.81,9.9,0,18.53,2.01,25.92,6.04,7.55,4.03,13.34,9.32,17.36,15.87v-19.9h43.03v140.52h-43.03v-19.89c-4.19,6.55-10.07,11.84-17.61,15.87-7.38,4.03-16.02,6.04-25.92,6.04-11.41,0-21.81-2.94-31.2-8.81-9.39-6.04-16.86-14.52-22.39-25.43-5.37-11.08-8.05-23.84-8.05-38.28ZM625.38,893.61c0-10.74-3.02-19.22-9.06-25.43-5.87-6.21-13.09-9.32-21.64-9.32s-15.85,3.11-21.89,9.32c-5.87,6.04-8.81,14.44-8.81,25.18s2.94,19.31,8.81,25.69c6.04,6.21,13.33,9.32,21.89,9.32s15.77-3.11,21.64-9.32c6.04-6.21,9.06-14.69,9.06-25.43Z"/>
    <path d="M735.01,823.35v140.52h-43.03v-140.52h43.03Z"/>
  </g>
  <g>
    <path class="st3" d="M2348.11,212.42h-43.64s-127.82,126.27-127.82,126.27v43.65h43.64l127.82-126.26v-43.65Z"/>
    <path class="st3" d="M2065.94,244.14c0,17.56,14.24,31.8,31.8,31.8s31.8-14.24,31.8-31.8-14.24-31.8-31.8-31.8-31.8,14.24-31.8,31.8Z"/>
    <path class="st3" d="M2237.44,212.42h-43.65s-127.82,126.27-127.82,126.27v43.65h43.65l127.82-126.26v-43.65Z"/>
    <path class="st2" d="M1569.44,225.63c17.45,0,31.28,5.29,41.52,15.87,10.4,10.58,15.6,25.27,15.6,44.07v82.1h-42.78v-76.3c0-9.07-2.43-16.03-7.29-20.9-4.7-5.04-11.24-7.55-19.63-7.55s-15.01,2.52-19.88,7.55c-4.69,4.87-7.04,11.84-7.04,20.9v76.3h-42.78v-76.3c0-9.07-2.43-16.03-7.3-20.9-4.69-5.04-11.23-7.55-19.62-7.55s-15.01,2.52-19.88,7.55c-4.7,4.87-7.04,11.84-7.04,20.9v76.3h-43.03v-140.52h43.03v17.63c4.36-5.88,10.06-10.49,17.11-13.85,7.04-3.53,15.01-5.29,23.9-5.29,10.57,0,19.96,2.27,28.18,6.8,8.39,4.53,14.93,11,19.63,19.39,4.86-7.72,11.49-14.02,19.87-18.89,8.39-4.87,17.53-7.3,27.43-7.3Z"/>
    <path class="st2" d="M1692.13,227.15v140.52h-43.03v-140.52h43.03Z"/>
    <path class="st2" d="M1758.79,250.57c5.03-7.72,11.32-13.77,18.87-18.13,7.55-4.53,15.93-6.8,25.16-6.8v45.58h-11.83c-10.73,0-18.78,2.35-24.15,7.05-5.37,4.53-8.05,12.59-8.05,24.18v65.22h-43.03v-140.52h43.03v23.42Z"/>
    <path class="st2" d="M1807.28,297.15c0-14.44,2.69-27.11,8.05-38.03,5.54-10.91,13-19.31,22.4-25.18,9.39-5.88,19.88-8.81,31.45-8.81,9.9,0,18.54,2.01,25.92,6.04,7.54,4.03,13.33,9.32,17.36,15.86v-19.89h43.02v140.52h-43.02v-19.89c-4.2,6.55-10.07,11.84-17.62,15.87-7.38,4.03-16.02,6.04-25.91,6.04-11.41,0-21.81-2.94-31.2-8.81-9.4-6.04-16.86-14.52-22.4-25.43-5.36-11.08-8.05-23.84-8.05-38.28ZM1912.46,297.41c0-10.74-3.02-19.22-9.06-25.43-5.87-6.21-13.08-9.32-21.64-9.32s-15.85,3.11-21.89,9.32c-5.87,6.04-8.81,14.44-8.81,25.18s2.94,19.31,8.81,25.69c6.04,6.21,13.34,9.32,21.89,9.32s15.77-3.11,21.64-9.32c6.04-6.21,9.06-14.69,9.06-25.43Z"/>
    <path class="st2" d="M2022.09,227.15v140.52h-43.03v-140.52h43.03Z"/>
  </g>
  <g>
    <path class="st2" d="M2348.11,808.62h-43.64s-127.82,126.27-127.82,126.27v43.65h43.64l127.82-126.26v-43.65Z"/>
    <path class="st2" d="M2065.94,840.34c0,17.56,14.24,31.8,31.8,31.8s31.8-14.24,31.8-31.8-14.24-31.8-31.8-31.8-31.8,14.24-31.8,31.8Z"/>
    <path class="st2" d="M2237.44,808.62h-43.65s-127.82,126.27-127.82,126.27v43.65h43.65l127.82-126.26v-43.65Z"/>
    <path class="st2" d="M1569.44,821.84c17.45,0,31.28,5.29,41.52,15.87,10.4,10.58,15.6,25.27,15.6,44.07v82.1h-42.78v-76.3c0-9.07-2.43-16.03-7.29-20.9-4.7-5.04-11.24-7.55-19.63-7.55s-15.01,2.52-19.88,7.55c-4.69,4.87-7.04,11.84-7.04,20.9v76.3h-42.78v-76.3c0-9.07-2.43-16.03-7.3-20.9-4.69-5.04-11.23-7.55-19.62-7.55s-15.01,2.52-19.88,7.55c-4.7,4.87-7.04,11.84-7.04,20.9v76.3h-43.03v-140.52h43.03v17.63c4.36-5.88,10.06-10.49,17.11-13.85,7.04-3.53,15.01-5.29,23.9-5.29,10.57,0,19.96,2.27,28.18,6.8,8.39,4.53,14.93,11,19.63,19.39,4.86-7.72,11.49-14.02,19.87-18.89,8.39-4.87,17.53-7.3,27.43-7.3Z"/>
    <path class="st2" d="M1692.13,823.35v140.52h-43.03v-140.52h43.03Z"/>
    <path class="st2" d="M1758.79,846.77c5.03-7.72,11.32-13.77,18.87-18.13,7.55-4.53,15.93-6.8,25.16-6.8v45.58h-11.83c-10.73,0-18.78,2.35-24.15,7.05-5.37,4.53-8.05,12.59-8.05,24.18v65.22h-43.03v-140.52h43.03v23.42Z"/>
    <path class="st2" d="M1807.28,893.35c0-14.44,2.69-27.11,8.05-38.03,5.54-10.91,13-19.31,22.4-25.18,9.39-5.88,19.88-8.81,31.45-8.81,9.9,0,18.54,2.01,25.92,6.04,7.54,4.03,13.33,9.32,17.36,15.87v-19.9h43.02v140.52h-43.02v-19.89c-4.2,6.55-10.07,11.84-17.62,15.87-7.38,4.03-16.02,6.04-25.91,6.04-11.41,0-21.81-2.94-31.2-8.81-9.4-6.04-16.86-14.52-22.4-25.43-5.36-11.08-8.05-23.84-8.05-38.28ZM1912.46,893.61c0-10.74-3.02-19.22-9.06-25.43-5.87-6.21-13.08-9.32-21.64-9.32s-15.85,3.11-21.89,9.32c-5.87,6.04-8.81,14.44-8.81,25.18s2.94,19.31,8.81,25.69c6.04,6.21,13.34,9.32,21.89,9.32s15.77-3.11,21.64-9.32c6.04-6.21,9.06-14.69,9.06-25.43Z"/>
    <path class="st2" d="M2022.09,823.35v140.52h-43.03v-140.52h43.03Z"/>
  </g>
  <g>
    <path class="st3" d="M1061.03,1404.82h-43.64s-127.82,126.27-127.82,126.27v43.65h43.65l127.82-126.27v-43.65Z"/>
    <path class="st3" d="M778.86,1436.54c0,17.56,14.24,31.8,31.8,31.8s31.8-14.24,31.8-31.8-14.24-31.8-31.8-31.8-31.8,14.23-31.8,31.8Z"/>
    <path class="st3" d="M950.35,1404.82h-43.64l-127.82,126.26v43.65h43.65l127.82-126.26v-43.65Z"/>
    <path class="st3" d="M282.36,1418.04c17.44,0,31.28,5.28,41.52,15.86,10.4,10.58,15.6,25.27,15.6,44.07v82.1h-42.78v-76.31c0-9.06-2.43-16.03-7.3-20.9-4.7-5.03-11.24-7.55-19.63-7.55s-15.01,2.52-19.88,7.55c-4.7,4.87-7.04,11.84-7.04,20.9v76.31h-42.77v-76.31c0-9.06-2.43-16.03-7.3-20.9-4.7-5.03-11.24-7.55-19.63-7.55s-15.01,2.52-19.88,7.55c-4.7,4.87-7.05,11.84-7.05,20.9v76.31h-43.03v-140.52h43.03v17.63c4.36-5.88,10.06-10.5,17.11-13.86,7.05-3.52,15.01-5.28,23.9-5.28,10.57,0,19.96,2.26,28.18,6.8,8.39,4.53,14.93,10.99,19.63,19.39,4.87-7.73,11.49-14.02,19.88-18.89,8.39-4.87,17.53-7.3,27.43-7.3Z"/>
    <path class="st3" d="M405.05,1419.55v140.52h-43.03v-140.52h43.03Z"/>
    <path class="st3" d="M471.7,1442.97c5.03-7.73,11.32-13.77,18.87-18.13,7.55-4.54,15.94-6.8,25.16-6.8v45.58h-11.83c-10.74,0-18.79,2.35-24.15,7.05-5.37,4.53-8.05,12.59-8.05,24.17v65.23h-43.03v-140.52h43.03v23.42Z"/>
    <path class="st3" d="M520.2,1489.56c0-14.44,2.68-27.12,8.05-38.03,5.54-10.91,13-19.31,22.39-25.18,9.39-5.88,19.88-8.82,31.45-8.82,9.9,0,18.53,2.02,25.92,6.05,7.55,4.03,13.34,9.31,17.36,15.86v-19.89h43.03v140.52h-43.03v-19.9c-4.19,6.55-10.07,11.84-17.61,15.87-7.38,4.03-16.02,6.04-25.92,6.04-11.41,0-21.81-2.93-31.2-8.81-9.39-6.04-16.86-14.52-22.39-25.44-5.37-11.08-8.05-23.84-8.05-38.27ZM625.38,1489.81c0-10.75-3.02-19.22-9.06-25.44-5.87-6.21-13.09-9.31-21.64-9.31s-15.85,3.1-21.89,9.31c-5.87,6.05-8.81,14.44-8.81,25.19s2.94,19.3,8.81,25.68c6.04,6.21,13.33,9.32,21.89,9.32s15.77-3.11,21.64-9.32c6.04-6.21,9.06-14.69,9.06-25.43Z"/>
    <path class="st3" d="M735.01,1419.55v140.52h-43.03v-140.52h43.03Z"/>
  </g>
  <g>
    <path class="st1" d="M2348.11,1404.82h-43.64s-127.82,126.27-127.82,126.27v43.65h43.64l127.82-126.27v-43.65Z"/>
    <path class="st1" d="M2065.94,1436.54c0,17.56,14.24,31.8,31.8,31.8s31.8-14.24,31.8-31.8-14.24-31.8-31.8-31.8-31.8,14.23-31.8,31.8Z"/>
    <path class="st1" d="M2237.44,1404.82h-43.65l-127.82,126.26v43.65h43.65l127.82-126.26v-43.65Z"/>
    <path class="st2" d="M1569.44,1418.04c17.45,0,31.28,5.28,41.52,15.86,10.4,10.58,15.6,25.27,15.6,44.07v82.1h-42.78v-76.31c0-9.06-2.43-16.03-7.29-20.9-4.7-5.03-11.24-7.55-19.63-7.55s-15.01,2.52-19.88,7.55c-4.69,4.87-7.04,11.84-7.04,20.9v76.31h-42.78v-76.31c0-9.06-2.43-16.03-7.3-20.9-4.69-5.03-11.23-7.55-19.62-7.55s-15.01,2.52-19.88,7.55c-4.7,4.87-7.04,11.84-7.04,20.9v76.31h-43.03v-140.52h43.03v17.63c4.36-5.88,10.06-10.5,17.11-13.86,7.04-3.52,15.01-5.28,23.9-5.28,10.57,0,19.96,2.26,28.18,6.8,8.39,4.53,14.93,10.99,19.63,19.39,4.86-7.73,11.49-14.02,19.87-18.89,8.39-4.87,17.53-7.3,27.43-7.3Z"/>
    <path class="st2" d="M1692.13,1419.55v140.52h-43.03v-140.52h43.03Z"/>
    <path class="st2" d="M1758.79,1442.97c5.03-7.73,11.32-13.77,18.87-18.13,7.55-4.54,15.93-6.8,25.16-6.8v45.58h-11.83c-10.73,0-18.78,2.35-24.15,7.05-5.37,4.53-8.05,12.59-8.05,24.17v65.23h-43.03v-140.52h43.03v23.42Z"/>
    <path class="st2" d="M1807.28,1489.56c0-14.44,2.69-27.12,8.05-38.03,5.54-10.91,13-19.31,22.4-25.18,9.39-5.88,19.88-8.82,31.45-8.82,9.9,0,18.54,2.02,25.92,6.05,7.54,4.03,13.33,9.31,17.36,15.86v-19.89h43.02v140.52h-43.02v-19.9c-4.2,6.55-10.07,11.84-17.62,15.87-7.38,4.03-16.02,6.04-25.91,6.04-11.41,0-21.81-2.93-31.2-8.81-9.4-6.04-16.86-14.52-22.4-25.44-5.36-11.08-8.05-23.84-8.05-38.27ZM1912.46,1489.81c0-10.75-3.02-19.22-9.06-25.44-5.87-6.21-13.08-9.31-21.64-9.31s-15.85,3.1-21.89,9.31c-5.87,6.05-8.81,14.44-8.81,25.19s2.94,19.3,8.81,25.68c6.04,6.21,13.34,9.32,21.89,9.32s15.77-3.11,21.64-9.32c6.04-6.21,9.06-14.69,9.06-25.43Z"/>
    <path class="st2" d="M2022.09,1419.55v140.52h-43.03v-140.52h43.03Z"/>
  </g>
</svg>